<?xml version="1.0" encoding="utf-8"?>
<!-- Generator: Adobe Illustrator 19.0.0, SVG Export Plug-In . SVG Version: 6.00 Build 0)  -->
<svg version="1.0" id="Layer_1" xmlns="http://www.w3.org/2000/svg" xmlns:xlink="http://www.w3.org/1999/xlink" x="0px" y="0px"
	 viewBox="0 0 1000 1000" style="enable-background:new 0 0 1000 1000;" xml:space="preserve">
<style type="text/css">
	.st0{fill:#1C75BC;}
</style>
<path id="XMLID_1_" class="st0" d="M266.6,572H93.9c-17.2,0-31.2-14-31.2-31.2V419.8c0-17.2,14-31.2,31.2-31.2h172.8
	c12.9,0,23.4,10.5,23.4,23.4v136.8C290,561.6,279.5,572,266.6,572z"/>
<path id="XMLID_7_" class="st0" d="M539.6,360.2V253.1c0-24.6-19.9-44.5-44.5-44.5H356.8c-24.6,0-44.5,19.9-44.5,44.5v586.2
	c0,24.6,19.9,44.5,44.5,44.5h138.2c24.6,0,44.5-19.9,44.5-44.5V657.8V509.9V360.2z"/>
<path id="XMLID_10_" class="st0" d="M836,716.9c45.8-23.5,80.2-55.6,103.3-96.4c23.1-40.8,34.6-86.9,34.6-138.5
	c0-83.1-26-149.4-77.9-199.1c-51.9-49.6-127.1-74.4-225.6-74.4h-50.6c-33.9,0-61.3,27.5-61.3,61.3v60.8c0,33.9,27.5,61.3,61.3,61.3
	H645c66.2,0,99.2,30,99.2,90c0,60.8-33.1,91.2-99.2,91.2h-25.2c-33.9,0-61.3,27.5-61.3,61.3v56.2c0,33.9,27.5,61.3,61.3,61.3h50.6
	C735,752.1,790.2,740.3,836,716.9z"/>
</svg>
